Patient4_TMGait_0pt6_01_right_02_GRF.mot
version=1
nRows=78
nColumns=19
inDegrees=no
endheader
time	F1x	F1y	F1z	M1x	M1y	M1z	F2x	F2y	F2z	M2x	M2y	M2z	EC1x	EC1y	EC1z	EC2x	EC2y	EC2z
1.8	-14.4029	746.9344	67.5318	-247.3061	-57.2553	622.066	9.43	-3.0338	-10.3294	3.0242	8.1602	-4.4713	-0.0592	0.0182	-0.0073	-0.0462	0.0165	0.9585
1.8121	-11.0864	738.6283	66.8326	-243.3409	-55.6829	611.6167	6.3377	-1.2719	-7.4115	2.46	5.9374	-2.3245	-0.0592	0.0182	-0.0073	-0.0462	0.0165	0.9585
1.8241	-7.5719	730.4122	66.0485	-239.3713	-53.8366	600.8049	3.758	0.21864	-4.7757	1.9414	3.8746	-0.51889	-0.0592	0.0182	-0.0073	-0.0462	0.0165	0.9585
1.8362	-4.009	723.2675	65.2611	-235.8041	-51.8223	590.5661	1.8146	1.372	-2.6612	1.5261	2.1868	0.87424	-0.0592	0.0182	-0.0073	-0.0462	0.0165	0.9585
1.8483	-0.49939	717.9726	64.5193	-232.9492	-49.7268	581.6306	0.49114	2.1994	-1.1207	1.2305	0.93553	1.8742	-0.0592	0.0182	-0.0073	-0.0462	0.0165	0.9585
1.8604	2.8871	714.9714	63.8782	-230.9759	-47.6429	574.4222	-0.31525	2.7482	-0.11115	1.0455	0.10234	2.5482	-0.0592	0.0182	-0.0073	-0.0462	0.0165	0.9585
1.8724	6.1099	714.332	63.3463	-229.9091	-45.6179	569.0309	-0.72967	3.0673	0.47233	0.94633	-0.39015	2.9602	-0.0592	0.0182	-0.0073	-0.0462	0.0165	0.9585
1.8845	9.1565	715.7967	62.941	-229.6514	-43.6982	565.2798	-0.87131	3.1933	0.73441	0.89808	-0.62276	3.1527	-0.0592	0.0182	-0.0073	-0.0462	0.0165	0.9585
1.8966	12.0545	718.8711	62.6346	-230.0199	-41.8751	562.7806	-0.85898	3.1428	0.78388	0.86094	-0.6804	3.1493	-0.0592	0.0182	-0.0073	-0.0462	0.0165	0.9585
1.9086	14.8212	722.9359	62.4201	-230.7825	-40.1547	561.0636	-0.77238	2.907	0.70071	0.79288	-0.62405	2.9346	-0.0592	0.0182	-0.0073	-0.0462	0.0165	0.9585
1.9207	17.5149	727.3526	62.2602	-231.7021	-38.5022	559.6302	-0.68257	2.4597	0.54729	0.65231	-0.49453	2.4874	-0.0592	0.0182	-0.0073	-0.0462	0.0165	0.9585
1.9328	20.1663	731.5507	62.1451	-232.5655	-36.9116	558.0562	-0.62735	1.75	0.36356	0.39909	-0.31604	1.762	-0.0592	0.0182	-0.0073	-0.0462	0.0165	0.9585
1.9449	22.8378	735.1022	62.0626	-233.2125	-35.3611	556.0043	-0.64199	0.74166	0.17881	0.0056638	-0.1034	0.73817	-0.0592	0.0182	-0.0073	-0.0462	0.0165	0.9585
1.9569	25.5765	737.7852	62.0284	-233.5535	-33.8491	553.3176	-0.73321	-0.58847	0.014336	-0.54188	0.12481	-0.59623	-0.0592	0.0182	-0.0073	-0.0462	0.0165	0.9585
1.969	28.452	739.5848	62.0719	-233.572	-32.3747	549.9925	-0.91056	-2.1975	-0.10052	-1.2264	0.34171	-2.1849	-0.0592	0.0182	-0.0073	-0.0462	0.0165	0.9585
1.9811	31.4931	740.6785	62.2438	-233.3194	-30.961	546.1899	-1.1411	-3.9429	-0.13844	-1.9806	0.50533	-3.8874	-0.0592	0.0182	-0.0073	-0.0462	0.0165	0.9585
1.9931	34.7394	741.3724	62.5946	-232.8945	-29.633	542.1551	-1.3793	-5.5055	-0.057777	-2.658	0.55137	-5.3919	-0.0592	0.0182	-0.0073	-0.0462	0.0165	0.9585
2.0052	38.1756	741.9971	63.1638	-232.4068	-28.4241	538.153	-1.5404	-6.343	0.1802	-3.009	0.40484	-6.1891	-0.0592	0.0182	-0.0073	-0.0462	0.0165	0.9585
2.0173	41.7727	742.75	63.9483	-231.9309	-27.3436	534.3222	-1.5099	-5.6128	0.6307	-2.6535	-0.036895	-5.4726	-0.0592	0.0182	-0.0073	-0.0462	0.0165	0.9585
2.0294	45.4554	743.5801	64.8921	-231.4631	-26.3788	530.6499	-1.1163	-2.1771	1.3356	-1.0776	-0.88316	-2.1591	-0.0592	0.0182	-0.0073	-0.0462	0.0165	0.9585
2.0414	49.141	744.1127	65.881	-230.8995	-25.4833	526.9084	-0.15648	5.3939	2.3158	2.362	-2.2345	5.1119	-0.0592	0.0182	-0.0073	-0.0462	0.0165	0.9585
2.0535	52.7099	743.6628	66.7582	-230.0386	-24.598	522.6771	1.5118	18.7539	3.5353	8.409	-4.1057	17.91	-0.0592	0.0182	-0.0073	-0.0462	0.0165	0.9585
2.0656	56.0586	741.3012	67.3289	-228.6049	-23.6442	517.3755	3.807	39.5902	4.9008	17.8175	-6.3634	37.8439	-0.0592	0.0182	-0.0073	-0.0462	0.0165	0.9585
2.0776	59.0521	735.8761	67.3831	-226.2594	-22.5455	510.2759	6.3167	69.1713	6.1901	31.1447	-8.6047	66.1236	-0.0592	0.0182	-0.0073	-0.0462	0.0165	0.9585
2.0897	61.5315	726.076	66.6839	-222.6179	-21.2101	500.5414	8.1307	107.6439	7.0623	48.4348	-10.1008	102.8786	-0.0592	0.0182	-0.0073	-0.0462	0.0165	0.9585
2.1018	63.3079	710.5157	64.9919	-217.2798	-19.5484	487.2876	7.798	153.1263	7.011	68.8122	-9.7445	146.2895	-0.0592	0.0182	-0.0073	-0.0462	0.0165	0.9585
2.1139	64.1653	687.9277	62.0948	-209.8871	-17.4935	469.6969	4.3108	201.7079	5.373	90.5013	-6.5085	192.5828	-0.0592	0.0182	-0.0073	-0.0462	0.0165	0.9585
2.1259	63.9104	657.3628	57.887	-200.1816	-15.0387	447.1384	-1.8261	249.7866	1.9759	111.8814	-0.49997	238.1861	-0.0592	0.0182	-0.0073	-0.0462	0.0165	0.9585
2.138	62.3603	618.3849	52.4269	-188.0487	-12.2738	419.335	-9.5843	296.0606	-2.6577	132.3743	7.2924	281.6359	-0.0592	0.0182	-0.0073	-0.0462	0.0165	0.9585
2.1501	59.3925	571.1068	45.953	-173.5252	-9.3745	386.3462	-17.9131	341.3243	-7.9278	152.3492	15.8309	323.4791	-0.0592	0.0182	-0.0073	-0.0462	0.0165	0.9585
2.1621	54.939	516.3086	38.8162	-156.8316	-6.558	348.6863	-25.8669	387.1246	-13.1117	172.5193	24.0153	365.0641	-0.0592	0.0182	-0.0073	-0.0462	0.0165	0.9585
2.1742	49.0342	455.4423	31.4624	-138.3781	-4.0645	307.2774	-32.6337	434.4196	-17.8301	193.3236	31.1489	407.2526	-0.0592	0.0182	-0.0073	-0.0462	0.0165	0.9585
2.1863	41.7973	390.637	24.3684	-118.7675	-2.1159	263.5062	-37.669	483.0325	-21.871	214.6792	36.8137	449.8793	-0.0592	0.0182	-0.0073	-0.0462	0.0165	0.9585
2.1984	33.5057	324.4963	18.0284	-98.7459	-0.9135	219.0438	-40.7656	531.8275	-25.4253	236.0513	41.118	491.9257	-0.0592	0.0182	-0.0073	-0.0462	0.0165	0.9585
2.2104	24.5862	259.9042	12.7887	-79.1553	-0.52695	175.7515	-42.0546	579.2611	-28.8121	256.7063	44.4301	532.0627	-0.0592	0.0182	-0.0073	-0.0462	0.0165	0.9585
2.2225	15.6287	199.7124	8.8193	-60.8497	-0.89179	135.4492	-41.9101	623.799	-32.4726	275.9169	47.3313	569.0339	-0.0592	0.0182	-0.0073	-0.0462	0.0165	0.9585
2.2346	7.3418	146.3986	6.0377	-44.5927	-1.75	99.7317	-40.7928	664.2205	-36.6099	293.1197	50.2186	601.8849	-0.0592	0.0182	-0.0073	-0.0462	0.0165	0.9585
2.2466	0.45477	101.5614	4.2153	-30.8968	-2.7479	69.6213	-39.1621	699.6633	-41.2278	307.941	53.3077	629.9859	-0.0592	0.0182	-0.0073	-0.0462	0.0165	0.9585
2.2587	-4.5123	65.7333	3.0382	-19.9491	-3.5354	45.4753	-37.3783	729.5718	-46.0448	320.1821	56.5109	652.9534	-0.0592	0.0182	-0.0073	-0.0462	0.0165	0.9585
2.2708	-7.3757	38.5505	2.2234	-11.6528	-3.8865	27.0687	-35.6464	753.6796	-50.6452	329.7925	59.5537	670.6462	-0.0592	0.0182	-0.0073	-0.0462	0.0165	0.9585
2.2829	-8.2863	19.1149	1.5642	-5.7364	-3.7195	13.829	-34.0117	771.9193	-54.5666	336.8203	62.0484	683.072	-0.0592	0.0182	-0.0073	-0.0462	0.0165	0.9585
2.2949	-7.715	6.2503	0.99611	-1.8338	-3.1476	4.9905	-32.4589	784.2681	-57.4948	341.3268	63.7105	690.2748	-0.0592	0.0182	-0.0073	-0.0462	0.0165	0.9585
2.307	-6.3671	-1.3379	0.53894	0.45764	-2.4077	-0.2904	-30.9438	790.7533	-59.2975	343.3806	64.4024	692.3437	-0.0592	0.0182	-0.0073	-0.0462	0.0165	0.9585
2.3191	-4.7901	-5.0408	0.22864	1.5663	-1.7027	-2.9357	-29.4239	791.6048	-60.0277	343.1198	64.155	689.5331	-0.0592	0.0182	-0.0073	-0.0462	0.0165	0.9585
2.3311	-3.3132	-6.1455	0.037846	1.8858	-1.1162	-3.8051	-27.867	787.433	-59.8274	340.8332	63.0803	682.3966	-0.0592	0.0182	-0.0073	-0.0462	0.0165	0.9585
2.3432	-2.0996	-5.7197	-0.042058	1.7415	-0.69661	-3.619	-26.2369	779.2904	-58.8441	336.9873	61.2932	671.8431	-0.0592	0.0182	-0.0073	-0.0462	0.0165	0.9585
2.3553	-1.1921	-4.5378	-0.049591	1.3663	-0.42879	-2.8929	-24.5237	768.5307	-57.2352	332.1687	58.9315	659.0269	-0.0592	0.0182	-0.0073	-0.0462	0.0165	0.9585
2.3674	-0.57707	-3.1202	-0.0033675	0.91744	-0.29622	-1.9782	-22.7489	756.6585	-55.1569	327.0169	56.1417	645.2125	-0.0592	0.0182	-0.0073	-0.0462	0.0165	0.9585
2.3794	-0.19766	-1.7766	0.056801	0.48846	-0.24682	-1.0905	-20.9589	745.1656	-52.8117	322.1517	53.1165	631.6495	-0.0592	0.0182	-0.0073	-0.0462	0.0165	0.9585
2.3915	-0.00011691	-0.6518	0.11558	0.12623	-0.24799	-0.32691	-19.2301	735.3507	-50.3848	318.0993	50.0407	619.4283	-0.0592	0.0182	-0.0073	-0.0462	0.0165	0.9585
2.4036	0.077176	0.20495	0.15819	-0.15232	-0.26656	0.27089	-17.6593	728.1883	-48.0869	315.2389	47.1306	609.371	-0.0592	0.0182	-0.0073	-0.0462	0.0165	0.9585
2.4156	0.073807	0.81312	0.18089	-0.35104	-0.28477	0.70807	-16.3249	724.2876	-46.0616	313.7936	44.5335	601.9913	-0.0592	0.0182	-0.0073	-0.0462	0.0165	0.9585
2.4277	0.031172	1.2204	0.19	-0.48342	-0.29634	1.0068	-15.274	723.8941	-44.4034	313.8363	42.3407	597.5163	-0.0592	0.0182	-0.0073	-0.0462	0.0165	0.9585
2.4398	-0.03484	1.4759	0.18839	-0.56402	-0.29887	1.205	-14.4807	726.8584	-43.1398	315.279	40.559	595.8279	-0.0592	0.0182	-0.0073	-0.0462	0.0165	0.9585
2.4519	-0.10367	1.6291	0.18094	-0.60878	-0.29537	1.3293	-13.8741	732.6273	-42.2787	317.8633	39.1648	596.474	-0.0592	0.0182	-0.0073	-0.0462	0.0165	0.9585
2.4639	-0.18592	1.7	0.16922	-0.62532	-0.29423	1.396	-13.3526	740.2904	-41.8047	321.1821	38.1046	598.7008	-0.0592	0.0182	-0.0073	-0.0462	0.0165	0.9585
2.476	-0.27958	1.6949	0.1521	-0.61708	-0.30005	1.4071	-12.8039	748.7391	-41.6884	324.7467	37.3116	601.5981	-0.0592	0.0182	-0.0073	-0.0462	0.0165	0.9585
2.4881	-0.40764	1.5996	0.13475	-0.57678	-0.32619	1.3514	-12.1129	756.8146	-41.8653	328.0548	36.6845	604.225	-0.0592	0.0182	-0.0073	-0.0462	0.0165	0.9585
2.5001	-0.57138	1.3758	0.12197	-0.48982	-0.37735	1.1808	-11.1753	763.4394	-42.2584	330.6439	36.1172	605.7264	-0.0592	0.0182	-0.0073	-0.0462	0.0165	0.9585
2.5122	-0.77491	0.97784	0.12427	-0.33938	-0.45998	0.84664	-9.9051	767.7311	-42.7576	332.1399	35.4832	605.4183	-0.0592	0.0182	-0.0073	-0.0462	0.0165	0.9585
2.5243	-0.99627	0.34481	0.14805	-0.10321	-0.57086	0.27463	-8.2545	769.1056	-43.2552	332.3016	34.6774	602.8604	-0.0592	0.0182	-0.0073	-0.0462	0.0165	0.9585
2.5364	-1.204	-0.56885	0.19402	0.2369	-0.69491	-0.59067	-6.2258	767.325	-43.6638	331.0347	33.6315	597.8807	-0.0592	0.0182	-0.0073	-0.0462	0.0165	0.9585
2.5484	-1.3245	-1.7867	0.25609	0.68886	-0.79866	-1.7773	-3.866	762.4863	-43.9922	328.3856	32.3792	590.5708	-0.0592	0.0182	-0.0073	-0.0462	0.0165	0.9585
2.5605	-1.2591	-3.2729	0.31581	1.2366	-0.827	-3.2477	-1.2594	755.0696	-44.3008	324.5645	31.0076	581.318	-0.0592	0.0182	-0.0073	-0.0462	0.0165	0.9585
2.5726	-0.86341	-4.8812	0.34522	1.8245	-0.70504	-4.8535	1.5054	745.9336	-44.688	319.9436	29.64	570.7937	-0.0592	0.0182	-0.0073	-0.0462	0.0165	0.9585
2.5846	0.039729	-6.3085	0.29592	2.3391	-0.32454	-6.2917	4.329	736.1789	-45.2301	315.0047	28.3824	559.8507	-0.0592	0.0182	-0.0073	-0.0462	0.0165	0.9585
2.5967	1.6483	-7.0132	0.10949	2.5829	0.43763	-7.0398	7.1278	726.954	-45.9703	310.2548	27.3115	549.3735	-0.0592	0.0182	-0.0073	-0.0462	0.0165	0.9585
2.6088	4.1394	-6.1822	-0.28705	2.2623	1.7098	-6.3228	9.8591	719.2627	-46.9102	306.1394	26.4558	540.1254	-0.0592	0.0182	-0.0073	-0.0462	0.0165	0.9585
2.6209	7.615	-2.6972	-0.97453	0.97798	3.6005	-3.0782	12.5298	713.7874	-48.0201	302.9664	25.7965	532.6084	-0.0592	0.0182	-0.0073	-0.0462	0.0165	0.9585
2.6329	11.9983	4.8118	-2.0136	-1.7556	6.144	4.0014	15.1705	710.7824	-49.257	300.8551	25.2897	527.0018	-0.0592	0.0182	-0.0073	-0.0462	0.0165	0.9585
2.645	16.9206	17.8276	-3.4333	-6.4618	9.2389	16.3428	17.8472	709.9831	-50.5501	299.7016	24.8565	523.1074	-0.0592	0.0182	-0.0073	-0.0462	0.0165	0.9585
2.6571	21.5552	37.6542	-5.1704	-13.601	12.5295	35.2235	20.6196	710.6214	-51.7932	299.1885	24.3904	520.3759	-0.0592	0.0182	-0.0073	-0.0462	0.0165	0.9585
2.6691	24.4712	64.9382	-7.0375	-23.4018	15.3189	61.3106	23.5314	711.4318	-52.8292	298.7939	23.7591	517.9007	-0.0592	0.0182	-0.0073	-0.0462	0.0165	0.9585
2.6812	23.8201	99.3482	-8.6369	-35.7419	16.5676	94.3714	26.5858	710.7424	-53.4685	297.8305	22.8312	514.4955	-0.0592	0.0182	-0.0073	-0.0462	0.0165	0.9585
2.6933	18.7457	140.2258	-9.5583	-50.3686	15.5761	133.8714	29.7501	706.6669	-53.5063	295.527	21.4836	508.8314	-0.0592	0.0182	-0.0073	-0.0462	0.0165	0.9585
2.7054	10.3317	187.021	-9.4784	-67.042	12.4015	179.2859	32.9423	697.3224	-52.7553	291.1138	19.6276	499.5888	-0.0592	0.0182	-0.0073	-0.0462	0.0165	0.9585
2.7174	0.26873	237.7941	-7.9214	-84.9987	7.1806	228.5952	36.0054	680.9486	-51.0638	283.8686	17.229	485.5591	-0.0592	0.0182	-0.0073	-0.0462	0.0165	0.9585
2.7295	-10.0303	288.2591	-4.1865	-102.6664	-0.23214	277.4069	38.7149	656.0057	-48.3111	273.1649	14.3122	465.6986	-0.0592	0.0182	-0.0073	-0.0462	0.0165	0.9585
